<svg xmlns="http://www.w3.org/2000/svg" width="77.884" height="24.128" viewBox="0 0 77.884 24.128">
  <g id="Group_454" data-name="Group 454" transform="translate(-6586.831 -2643.901)">
    <g id="Group_453" data-name="Group 453">
      <path id="Path_759" data-name="Path 759" d="M-10.992-3.577V-6.433q-1.086.11-1.758.189a5.972,5.972,0,0,0-1.318.311,1.846,1.846,0,0,0-.873.592,1.663,1.663,0,0,0-.311,1.056,1.5,1.5,0,0,0,.519,1.324A2.688,2.688,0,0,0-13.2-2.6a2.85,2.85,0,0,0,1.147-.256A3.556,3.556,0,0,0-10.992-3.577Zm0,2.124q-.439.366-.787.659a4.779,4.779,0,0,1-.934.586A6.252,6.252,0,0,1-13.831.22a6.128,6.128,0,0,1-1.52.146A4.065,4.065,0,0,1-18.372-.854a4.2,4.2,0,0,1-1.2-3.076,4.463,4.463,0,0,1,.61-2.466,4.189,4.189,0,0,1,1.758-1.489,9.2,9.2,0,0,1,2.771-.781q1.611-.22,3.467-.342v-.073a1.608,1.608,0,0,0-.836-1.569,5.642,5.642,0,0,0-2.509-.433,6.894,6.894,0,0,0-1.77.275,13.769,13.769,0,0,0-1.978.7h-.366v-3.308q.635-.183,2.051-.433a16.382,16.382,0,0,1,2.856-.25q3.54,0,5.157,1.178A4.153,4.153,0,0,1-6.744-9.326V0h-4.248ZM9.857-7.043a8.043,8.043,0,0,1-1.666,5.3A5.135,5.135,0,0,1,4.083.269,6.11,6.11,0,0,1,2.3.037,8.021,8.021,0,0,1,.69-.684V5.029H-3.583V-13.708H.69v1.428a9.884,9.884,0,0,1,1.917-1.306,4.885,4.885,0,0,1,2.258-.5,4.221,4.221,0,0,1,3.687,1.892A8.939,8.939,0,0,1,9.857-7.043Zm-4.37.085a5.281,5.281,0,0,0-.616-2.905,2.164,2.164,0,0,0-1.923-.9,3.7,3.7,0,0,0-1.141.183,4.512,4.512,0,0,0-1.117.549v6.9a3.036,3.036,0,0,0,.751.208,6.676,6.676,0,0,0,.97.061A2.7,2.7,0,0,0,4.73-3.888,5.133,5.133,0,0,0,5.487-6.958Zm20.1-.085a8.043,8.043,0,0,1-1.666,5.3A5.135,5.135,0,0,1,19.818.269,6.11,6.11,0,0,1,18.036.037a8.021,8.021,0,0,1-1.611-.72V5.029H12.152V-13.708h4.272v1.428a9.884,9.884,0,0,1,1.917-1.306,4.885,4.885,0,0,1,2.258-.5,4.221,4.221,0,0,1,3.687,1.892A8.939,8.939,0,0,1,25.592-7.043Zm-4.37.085a5.281,5.281,0,0,0-.616-2.905,2.164,2.164,0,0,0-1.923-.9,3.7,3.7,0,0,0-1.141.183,4.512,4.512,0,0,0-1.117.549v6.9a3.036,3.036,0,0,0,.751.208,6.676,6.676,0,0,0,.97.061,2.7,2.7,0,0,0,2.319-1.019A5.133,5.133,0,0,0,21.222-6.958ZM32.062.378A12.026,12.026,0,0,1,29.2.049,10.749,10.749,0,0,1,26.971-.72V-4.333h.354q.305.232.7.513a6.111,6.111,0,0,0,1.086.586,8.14,8.14,0,0,0,1.349.482,6.273,6.273,0,0,0,1.63.2,4.2,4.2,0,0,0,1.593-.281.94.94,0,0,0,.69-.891.853.853,0,0,0-.317-.72,3.585,3.585,0,0,0-1.233-.464q-.488-.122-1.233-.262a11.179,11.179,0,0,1-1.318-.323,4.947,4.947,0,0,1-2.423-1.483,3.923,3.923,0,0,1-.812-2.582,3.7,3.7,0,0,1,.421-1.727,4.4,4.4,0,0,1,1.239-1.447,6.368,6.368,0,0,1,2.02-.989,9.314,9.314,0,0,1,2.716-.366,11.467,11.467,0,0,1,2.649.287,9.993,9.993,0,0,1,2.039.69v3.467h-.342a7.668,7.668,0,0,0-.7-.458,9.439,9.439,0,0,0-.928-.494,6.611,6.611,0,0,0-1.2-.4,5.846,5.846,0,0,0-1.361-.159,3.51,3.51,0,0,0-1.569.317.952.952,0,0,0-.641.842.909.909,0,0,0,.317.732,3.765,3.765,0,0,0,1.379.525q.549.134,1.263.262a9.827,9.827,0,0,1,1.373.348,4.683,4.683,0,0,1,2.24,1.4,3.716,3.716,0,0,1,.763,2.448,3.944,3.944,0,0,1-.452,1.837A4.144,4.144,0,0,1,36.981-.977a6.658,6.658,0,0,1-2.069,1A10.077,10.077,0,0,1,32.062.378Z" transform="translate(6626 2663)" fill="#314584"/>
    </g>
    <path id="Path_760" data-name="Path 760" d="M-19.585-8.275a10.041,10.041,0,0,1-1.208,4.944A9.032,9.032,0,0,1-23.846.02,8.558,8.558,0,0,1-27.2,1.3a24.789,24.789,0,0,1-3.856.285h-6.185V-18.176h6.132a27.049,27.049,0,0,1,3.9.265,8.538,8.538,0,0,1,3.411,1.287,8.86,8.86,0,0,1,3.079,3.365A10.449,10.449,0,0,1-19.585-8.275Zm-5.1-.04a7.613,7.613,0,0,0-.67-3.338,4.886,4.886,0,0,0-2.064-2.17,4.8,4.8,0,0,0-2.117-.611q-1.108-.053-2.648-.053h-.093v12.37h.093q1.672,0,2.82-.06a4.491,4.491,0,0,0,2.183-.71A4.934,4.934,0,0,0-25.319-5.01,7.725,7.725,0,0,0-24.682-8.315Z" transform="translate(6624.069 2662.077)" fill="#0eca78"/>
  </g>
</svg>
