<svg id="service-icon2" xmlns="http://www.w3.org/2000/svg" width="64.04" height="47.389" viewBox="0 0 64.04 47.389">
  <path id="Path_741" data-name="Path 741" d="M59.389,0H4.653A4.663,4.663,0,0,0,0,4.651V42.739a4.663,4.663,0,0,0,4.652,4.65H59.388a4.662,4.662,0,0,0,4.652-4.65V4.651A4.659,4.659,0,0,0,59.389,0Zm2.793,42.739a2.814,2.814,0,0,1-2.793,2.79H4.653a2.809,2.809,0,0,1-2.791-2.789V13.323a2.81,2.81,0,0,1,2.791-2.791H59.389a2.814,2.814,0,0,1,2.793,2.789l0,29.418Zm0-33.125a4.626,4.626,0,0,0-2.793-.941H4.653a4.616,4.616,0,0,0-2.791.941V4.651A2.81,2.81,0,0,1,4.653,1.86H59.389a2.813,2.813,0,0,1,2.793,2.791Z" fill="#314584"/>
  <path id="Path_742" data-name="Path 742" d="M22.284,25.889l5.236-5.236a.372.372,0,0,0,0-.526l-.791-.789a.371.371,0,0,0-.525,0l-6.281,6.281a.371.371,0,0,0,0,.525l.6.6c.012.015.018.031.029.044l6.281,6.281a.372.372,0,0,0,.527,0l.789-.79a.372.372,0,0,0,0-.526Z" fill="#0eca78"/>
  <path id="Path_743" data-name="Path 743" d="M38.506,19.8a.371.371,0,0,0-.525,0l-.789.789a.372.372,0,0,0,0,.526l5.234,5.234-5.4,5.4a.372.372,0,0,0,0,.526l.789.79a.372.372,0,0,0,.527,0l6.281-6.282c.008-.008.012-.02.02-.028l.145-.146a.371.371,0,0,0,0-.525Z" fill="#0eca78"/>
  <path id="Path_744" data-name="Path 744" d="M34.813,20.161l-1.074-.305a.374.374,0,0,0-.459.256L30.21,30.93a.372.372,0,0,0,.256.46l1.074.306A.373.373,0,0,0,32,31.439l3.07-10.818A.373.373,0,0,0,34.813,20.161Z" fill="#0eca78"/>
  <path id="Path_745" data-name="Path 745" d="M47.59,4.162H44.172a.372.372,0,0,0-.371.373V5.652a.372.372,0,0,0,.371.372H47.59a.373.373,0,0,0,.373-.372V4.535A.373.373,0,0,0,47.59,4.162Z" fill="#3d3d49"/>
  <path id="Path_746" data-name="Path 746" d="M53.055,4.163h-3.42a.373.373,0,0,0-.371.372V5.65a.374.374,0,0,0,.371.372h3.42a.374.374,0,0,0,.373-.372V4.535A.373.373,0,0,0,53.055,4.163Z" fill="#3d3d49"/>
  <path id="Path_747" data-name="Path 747" d="M58.518,4.162H55.1a.372.372,0,0,0-.371.371V5.651a.372.372,0,0,0,.371.372h3.418a.374.374,0,0,0,.373-.372V4.533A.374.374,0,0,0,58.518,4.162Z" fill="#3d3d49"/>
</svg>
