<svg xmlns="http://www.w3.org/2000/svg" width="44.23" height="47.815" viewBox="0 0 44.23 47.815">
  <g id="Expanded" transform="translate(-2.257 -0.185)">
    <g id="Group_445" data-name="Group 445" transform="translate(2.257 0.185)">
      <g id="Group_439" data-name="Group 439" transform="translate(0 28.815)">
        <path id="Path_748" data-name="Path 748" d="M30.563,48H2.257l.082-1.075c.459-6.071,3.888-9.7,10.2-10.785V35h-2V29h12v6h-2v1.14c6.223,1.075,9.48,4.61,9.947,10.785ZM4.453,46H28.371c-.69-4.807-3.5-7.292-8.966-8.008l-.87-.114V33h2V31h-8v2h2v4.877l-.87.114C8.115,38.718,5.162,41.273,4.453,46Z" transform="translate(-2.257 -29)" fill="#314584"/>
      </g>
      <g id="Group_442" data-name="Group 442" transform="translate(27.743 13.815)">
        <path id="Path_751" data-name="Path 751" d="M40.45,16H31a1,1,0,1,1,0-2h9.45a1,1,0,0,1,0,2Z" transform="translate(-30 -14)" fill="#0eca78"/>
      </g>
      <g id="Group_443" data-name="Group 443" transform="translate(19.879 17.816)">
        <path id="Path_752" data-name="Path 752" d="M26.093,24.942a5,5,0,0,1-3.664-1.356,1,1,0,1,1,1.414-1.414c1.625,1.624,5.47.693,9.646-2.171H27a1,1,0,1,1,0-2h9.45a1,1,0,0,1,.643,1.766C33.072,23.138,29.1,24.942,26.093,24.942Z" transform="translate(-22.136 -18.001)" fill="#0eca78"/>
      </g>
      <g id="Group_440" data-name="Group 440" transform="translate(16.743 0.48)">
        <path id="Path_749" data-name="Path 749" d="M20,27.015a1,1,0,0,1-.707-1.707L43.642.958a1,1,0,0,1,1.414,1.414L20.707,26.722A1,1,0,0,1,20,27.015Z" transform="translate(-19 -0.665)" fill="#314584"/>
      </g>
      <g id="Group_441" data-name="Group 441" transform="translate(18.795)">
        <path id="Path_750" data-name="Path 750" d="M23.136,23.878a1,1,0,0,1-.707-.293c-3.172-3.172-.687-10.626,5.657-16.97A26.409,26.409,0,0,1,37.659.24a1,1,0,0,1,1.325.945V8a1,1,0,1,1-2,0V2.66A26.512,26.512,0,0,0,29.5,8.029c-5.834,5.833-7.664,12.135-5.657,14.142a1,1,0,0,1-.706,1.707Z" transform="translate(-21.053 -0.185)" fill="#314584"/>
      </g>
      <g id="Group_444" data-name="Group 444" transform="translate(31.743 0.48)">
        <path id="Path_753" data-name="Path 753" d="M43.45,12H35a1,1,0,0,1,0-2h7.862c1.847-3.435,2.145-6.263.78-7.628A1,1,0,0,1,45.056.958c2.139,2.139,1.87,5.98-.738,10.539A1,1,0,0,1,43.45,12Z" transform="translate(-34 -0.665)" fill="#314584"/>
      </g>
    </g>
  </g>
</svg>
